<?xml version="1.0" standalone="no"?>
<!DOCTYPE svg PUBLIC "-//W3C//DTD SVG 20010904//EN"
 "http://www.w3.org/TR/2001/REC-SVG-20010904/DTD/svg10.dtd">
<svg version="1.0" xmlns="http://www.w3.org/2000/svg"
 width="650.000000pt" height="650.000000pt" viewBox="0 0 650.000000 650.000000"
 preserveAspectRatio="xMidYMid meet">
<metadata>
Created by potrace 1.11, written by Peter Selinger 2001-2013
</metadata>
<g transform="translate(0.000000,650.000000) scale(0.100000,-0.100000)"
fill="#000000" stroke="none">
<path d="M1849 5799 c-57 -16 -130 -78 -161 -138 -28 -53 -28 -56 -28 -230 l0
-178 -63 -51 c-101 -82 -296 -288 -389 -412 -206 -275 -352 -576 -433 -894
-45 -180 -64 -293 -77 -484 -43 -599 139 -1206 510 -1702 93 -124 288 -330
389 -412 l63 -51 0 -174 c0 -189 5 -214 59 -282 16 -20 53 -50 83 -67 l53 -29
1395 0 1395 0 42 23 c56 29 111 85 134 136 16 35 19 67 19 217 l0 176 63 51
c101 82 296 288 389 412 206 275 352 576 433 894 45 180 64 293 77 483 43 600
-139 1207 -510 1703 -93 124 -288 330 -389 412 l-63 51 0 176 c0 151 -3 182
-19 218 -24 51 -84 112 -136 138 -39 20 -69 20 -1420 22 -852 0 -1394 -3
-1416 -8z m2788 -94 c48 -20 70 -41 97 -90 l21 -40 0 -2325 0 -2325 -22 -42
c-27 -49 -63 -79 -112 -93 -24 -8 -470 -10 -1392 -8 l-1355 3 -42 28 c-23 15
-52 46 -64 70 l-23 42 0 2325 0 2325 21 40 c26 48 48 69 94 89 31 13 206 15
1388 16 1195 0 1357 -2 1389 -15z"/>
<path d="M2125 5431 c-56 -25 -101 -66 -133 -120 l-27 -46 0 -780 0 -780 27
-45 c35 -60 72 -94 133 -122 l50 -23 1075 0 1075 0 57 28 c32 16 73 46 92 69
68 79 66 51 66 873 0 822 2 794 -66 873 -19 22 -57 52 -86 66 l-52 26 -1085 0
c-1029 0 -1088 -1 -1126 -19z m1023 -183 c18 -18 14 -46 -7 -58 -13 -6 -151
-10 -381 -10 -387 0 -404 -2 -458 -53 -45 -42 -56 -77 -62 -191 -4 -89 -8
-111 -22 -120 -13 -8 -23 -8 -35 0 -27 17 -26 233 1 284 36 69 107 130 176
151 44 13 774 11 788 -3z"/>
<path d="M3135 3070 c-199 -28 -357 -104 -504 -244 -111 -107 -199 -251 -242
-398 -30 -103 -38 -323 -15 -432 68 -329 329 -604 652 -686 411 -105 834 91
1028 477 57 115 77 200 83 354 8 203 -28 349 -129 516 -82 137 -265 291 -417
353 -132 54 -322 79 -456 60z m310 -110 c154 -39 278 -112 387 -228 83 -89
138 -181 179 -302 28 -82 33 -112 37 -221 4 -106 1 -139 -18 -215 -27 -109
-55 -172 -113 -261 -123 -189 -327 -318 -558 -354 -259 -40 -569 82 -731 289
-224 285 -241 674 -40 968 56 84 178 196 264 243 190 106 390 133 593 81z"/>
<path d="M3159 2450 c-71 -21 -151 -103 -177 -179 -18 -53 -14 -160 7 -208 81
-178 321 -223 458 -86 61 61 78 104 78 203 0 99 -14 135 -76 198 -59 59 -114
82 -196 81 -38 0 -80 -4 -94 -9z"/>
</g>
</svg>
