<svg id="Layer_1" data-name="Layer 1" xmlns="http://www.w3.org/2000/svg" viewBox="0 0 412.04 268.59"><defs><style>.cls-1{fill:#122346;opacity:0.1;}.cls-2{fill:#3460ac;}.cls-3{fill:#14151a;}.cls-4{fill:#82827c;}.cls-5{fill:#151218;}.cls-6{fill:#c41b8c;}.cls-7{fill:none;stroke:#fff;stroke-linecap:round;stroke-linejoin:round;stroke-width:4px;opacity:0.2;}.cls-8{fill:#0f121a;}</style></defs><title>raspberry-pi</title><rect class="cls-1" x="7271.02" y="7189.53" width="248.23" height="20.36" rx="10.18" transform="translate(-6797.85 7529.43) rotate(-90)"/><path class="cls-2" d="M6996.23,7076.7a8.33,8.33,0,0,0-2.54,6v234a8.34,8.34,0,0,0,2.54,6l9.22,8.93a8.33,8.33,0,0,0,5.81,2.35h373.66a8.34,8.34,0,0,0,5.81-2.35l9.22-8.93a8.38,8.38,0,0,0,2.54-6v-234a8.37,8.37,0,0,0-2.54-6l-9.22-8.93a8.35,8.35,0,0,0-5.81-2.36H7011.26a8.34,8.34,0,0,0-5.81,2.36Z" transform="translate(-6993.27 -7065.41)"/><rect class="cls-3" x="7068.27" y="7027.89" width="248.3" height="343.63" rx="3.55" transform="translate(-7000.56 7326.71) rotate(-90)"/><rect class="cls-4" x="7074.99" y="7033.12" width="242.86" height="333.18" rx="2.5" transform="translate(-6996.56 7330.71) rotate(-90)"/><rect class="cls-5" x="7077.23" y="7035.14" width="238.79" height="329.14" rx="2.47" transform="translate(-6996.36 7330.92) rotate(-90)"/><rect class="cls-6" x="7079.11" y="7039.92" width="234.83" height="319.57" rx="2.47" transform="translate(-6996.46 7330.82) rotate(-90)"/><line class="cls-7" x1="2" y1="256" x2="2" y2="12.58"/><line class="cls-7" x1="408" y1="256" x2="408" y2="12.58"/><circle class="cls-8" cx="385.35" cy="181.74" r="5.72"/><circle class="cls-8" cx="385.35" cy="126.84" r="5.72"/><circle class="cls-8" cx="385.35" cy="72.84" r="5.72"/></svg>